<svg width="100" height="100" viewBox="0 0 100 100" fill="none" xmlns="http://www.w3.org/2000/svg">
<circle cx="50" cy="50" r="50" fill="#DA0000"/>
<path d="M28.1569 25C27.3584 25 26.5233 25.2686 25.9139 25.8775C24.6954 27.0985 24.6954 29.147 25.9139 30.368L45.5144 49.9821L25.9139 69.5961C24.6954 70.8171 24.6954 72.8656 25.9139 74.0866C27.1327 75.3045 29.181 75.3045 30.3999 74.0866L50 54.4726L69.6001 74.0866C70.819 75.3045 72.8673 75.3045 74.0861 74.0866C75.3046 72.8656 75.3046 70.8171 74.0861 69.5961L54.4856 49.9821L74.0861 30.368C75.3046 29.147 75.3046 27.0985 74.0861 25.8775C73.4767 25.2686 72.6413 25 71.8431 25C71.0446 25 70.2099 25.2686 69.6001 25.8775L50 45.4915L30.3999 25.8775C29.7904 25.2686 28.9554 25 28.1569 25Z" fill="white"/>
</svg>
