<svg width="100" height="100" viewBox="0 0 100 100" fill="none" xmlns="http://www.w3.org/2000/svg">
<circle cx="50" cy="50" r="50" fill="#DA0000"/>
<path d="M50 20C33.4316 20 20 33.431 20 50C20 66.569 33.4316 80 50 80C66.5684 80 80 66.569 80 50C80 33.431 66.5684 20 50 20ZM50 26C63.2549 26 74 36.746 74 50C74 63.254 63.2549 74 50 74C36.7451 74 26 63.254 26 50C26 36.746 36.7451 26 50 26ZM50 35C48.3431 35 47 36.344 47 38C47 39.656 48.3431 41 50 41C51.6569 41 53 39.656 53 38C53 36.344 51.6569 35 50 35ZM50 44C48.3431 44 47 45.344 47 47V62C47 63.656 48.3431 65 50 65C51.6569 65 53 63.656 53 62V47C53 45.344 51.6569 44 50 44Z" fill="white"/>
</svg>
