<svg width="100" height="100" viewBox="0 0 100 100" fill="none" xmlns="http://www.w3.org/2000/svg">
<circle cx="50" cy="50" r="50" fill="#44A884"/>
<path d="M49.9828 20C33.4233 20 20 33.431 20 50C20 66.569 33.4233 80 49.9828 80C65.214 80 77.9987 68.576 79.7797 53.564C79.9715 51.917 78.7992 50.384 77.1531 50.186C75.5101 49.994 73.975 51.167 73.7831 52.814C72.3589 64.814 62.1678 74 49.9828 74C36.7364 74 25.9966 63.254 25.9966 50C25.9966 36.746 36.7364 26 49.9828 26C52.7502 26 55.4906 26.501 58.0421 27.407C59.6012 27.959 61.2353 27.092 61.79 25.532C62.3417 23.969 61.5681 22.241 60.009 21.686C56.8188 20.555 53.4338 20 49.9828 20ZM76.9673 26C76.1997 26 75.3962 26.27 74.8115 26.843L48.6695 52.625C47.899 53.384 47.1224 53.237 46.5167 52.343L43.5185 47.936C42.601 46.583 40.6761 46.19 39.3029 47.093C37.9267 47.996 37.5399 49.865 38.4574 51.218L41.4557 55.625C44.1571 59.612 49.4431 60.14 52.8881 56.75L79.123 31.064C80.2923 29.912 80.2923 27.995 79.123 26.843C78.5383 26.267 77.7348 26 76.9673 26Z" fill="white"/>
</svg>
